<mxfile host="Electron" modified="2023-04-14T03:00:17.862Z" agent="Mozilla/5.0 (Macintosh; Intel Mac OS X 10_15_7) AppleWebKit/537.36 (KHTML, like Gecko) draw.io/21.1.2 Chrome/106.0.5249.199 Electron/21.4.3 Safari/537.36" etag="nvS-t9m3eKH71hQ_3fAg" version="21.1.2" type="device">
  <diagram id="C5RBs43oDa-KdzZeNtuy" name="Page-1">
    <mxGraphModel dx="954" dy="727" grid="1" gridSize="10" guides="1" tooltips="1" connect="1" arrows="1" fold="1" page="1" pageScale="1" pageWidth="900" pageHeight="1600" math="0" shadow="0">
      <root>
        <mxCell id="WIyWlLk6GJQsqaUBKTNV-0" />
        <mxCell id="WIyWlLk6GJQsqaUBKTNV-1" parent="WIyWlLk6GJQsqaUBKTNV-0" />
        <mxCell id="WQZa8UEeUyDz01iGYJ9n-14" style="edgeStyle=orthogonalEdgeStyle;rounded=0;orthogonalLoop=1;jettySize=auto;html=1;" edge="1" parent="WIyWlLk6GJQsqaUBKTNV-1" source="WIyWlLk6GJQsqaUBKTNV-3" target="WQZa8UEeUyDz01iGYJ9n-2">
          <mxGeometry relative="1" as="geometry" />
        </mxCell>
        <mxCell id="WIyWlLk6GJQsqaUBKTNV-3" value="开始" style="rounded=1;whiteSpace=wrap;html=1;fontSize=12;glass=0;strokeWidth=1;shadow=0;" parent="WIyWlLk6GJQsqaUBKTNV-1" vertex="1">
          <mxGeometry x="380" y="90" width="120" height="40" as="geometry" />
        </mxCell>
        <mxCell id="WIyWlLk6GJQsqaUBKTNV-4" value="&lt;font color=&quot;#ff3333&quot;&gt;否&lt;/font&gt;" style="rounded=0;html=1;jettySize=auto;orthogonalLoop=1;fontSize=11;endArrow=block;endFill=0;endSize=8;strokeWidth=1;shadow=0;labelBackgroundColor=none;edgeStyle=orthogonalEdgeStyle;" parent="WIyWlLk6GJQsqaUBKTNV-1" source="WIyWlLk6GJQsqaUBKTNV-6" target="WIyWlLk6GJQsqaUBKTNV-10" edge="1">
          <mxGeometry y="20" relative="1" as="geometry">
            <mxPoint as="offset" />
          </mxGeometry>
        </mxCell>
        <mxCell id="WQZa8UEeUyDz01iGYJ9n-19" style="edgeStyle=orthogonalEdgeStyle;rounded=0;orthogonalLoop=1;jettySize=auto;html=1;entryX=0;entryY=0.5;entryDx=0;entryDy=0;" edge="1" parent="WIyWlLk6GJQsqaUBKTNV-1" source="WIyWlLk6GJQsqaUBKTNV-6" target="WQZa8UEeUyDz01iGYJ9n-17">
          <mxGeometry relative="1" as="geometry">
            <Array as="points">
              <mxPoint x="130" y="450" />
              <mxPoint x="130" y="280" />
            </Array>
          </mxGeometry>
        </mxCell>
        <mxCell id="WQZa8UEeUyDz01iGYJ9n-20" value="&lt;font color=&quot;#ff3333&quot;&gt;是&lt;/font&gt;" style="edgeLabel;html=1;align=center;verticalAlign=middle;resizable=0;points=[];" vertex="1" connectable="0" parent="WQZa8UEeUyDz01iGYJ9n-19">
          <mxGeometry x="-0.0549" relative="1" as="geometry">
            <mxPoint y="1" as="offset" />
          </mxGeometry>
        </mxCell>
        <mxCell id="WIyWlLk6GJQsqaUBKTNV-6" value="Array.isArray(items)?" style="rhombus;whiteSpace=wrap;html=1;shadow=0;fontFamily=Helvetica;fontSize=12;align=center;strokeWidth=1;spacing=6;spacingTop=-4;" parent="WIyWlLk6GJQsqaUBKTNV-1" vertex="1">
          <mxGeometry x="165" y="410" width="150" height="80" as="geometry" />
        </mxCell>
        <mxCell id="WQZa8UEeUyDz01iGYJ9n-27" style="edgeStyle=orthogonalEdgeStyle;rounded=0;orthogonalLoop=1;jettySize=auto;html=1;entryX=0.5;entryY=0;entryDx=0;entryDy=0;" edge="1" parent="WIyWlLk6GJQsqaUBKTNV-1" source="WIyWlLk6GJQsqaUBKTNV-10" target="WQZa8UEeUyDz01iGYJ9n-23">
          <mxGeometry relative="1" as="geometry" />
        </mxCell>
        <mxCell id="WQZa8UEeUyDz01iGYJ9n-32" value="&lt;font color=&quot;#ff0000&quot;&gt;否&lt;/font&gt;" style="edgeLabel;html=1;align=center;verticalAlign=middle;resizable=0;points=[];" vertex="1" connectable="0" parent="WQZa8UEeUyDz01iGYJ9n-27">
          <mxGeometry x="-0.42" y="1" relative="1" as="geometry">
            <mxPoint as="offset" />
          </mxGeometry>
        </mxCell>
        <mxCell id="WQZa8UEeUyDz01iGYJ9n-28" style="edgeStyle=orthogonalEdgeStyle;rounded=0;orthogonalLoop=1;jettySize=auto;html=1;entryX=0.608;entryY=-0.012;entryDx=0;entryDy=0;entryPerimeter=0;" edge="1" parent="WIyWlLk6GJQsqaUBKTNV-1" source="WIyWlLk6GJQsqaUBKTNV-10" target="WQZa8UEeUyDz01iGYJ9n-24">
          <mxGeometry relative="1" as="geometry" />
        </mxCell>
        <mxCell id="WQZa8UEeUyDz01iGYJ9n-31" value="&lt;font color=&quot;#ff0000&quot;&gt;是&lt;/font&gt;" style="edgeLabel;html=1;align=center;verticalAlign=middle;resizable=0;points=[];" vertex="1" connectable="0" parent="WQZa8UEeUyDz01iGYJ9n-28">
          <mxGeometry x="-0.0618" relative="1" as="geometry">
            <mxPoint y="1" as="offset" />
          </mxGeometry>
        </mxCell>
        <mxCell id="WIyWlLk6GJQsqaUBKTNV-10" value="Array.isArray(items.enum)?" style="rhombus;whiteSpace=wrap;html=1;shadow=0;fontFamily=Helvetica;fontSize=12;align=center;strokeWidth=1;spacing=6;spacingTop=-4;" parent="WIyWlLk6GJQsqaUBKTNV-1" vertex="1">
          <mxGeometry x="140" y="530" width="200" height="80" as="geometry" />
        </mxCell>
        <mxCell id="WIyWlLk6GJQsqaUBKTNV-11" value="结束" style="rounded=1;whiteSpace=wrap;html=1;fontSize=12;glass=0;strokeWidth=1;shadow=0;" parent="WIyWlLk6GJQsqaUBKTNV-1" vertex="1">
          <mxGeometry x="380" y="780" width="120" height="40" as="geometry" />
        </mxCell>
        <mxCell id="WQZa8UEeUyDz01iGYJ9n-5" value="&lt;font color=&quot;#ff3333&quot;&gt;输出结果&lt;/font&gt;" style="edgeStyle=orthogonalEdgeStyle;rounded=0;orthogonalLoop=1;jettySize=auto;html=1;entryX=0;entryY=0.5;entryDx=0;entryDy=0;" edge="1" parent="WIyWlLk6GJQsqaUBKTNV-1" source="WQZa8UEeUyDz01iGYJ9n-2" target="WQZa8UEeUyDz01iGYJ9n-4">
          <mxGeometry relative="1" as="geometry">
            <mxPoint x="570" y="200" as="targetPoint" />
          </mxGeometry>
        </mxCell>
        <mxCell id="WQZa8UEeUyDz01iGYJ9n-15" value="" style="edgeStyle=orthogonalEdgeStyle;rounded=0;orthogonalLoop=1;jettySize=auto;html=1;" edge="1" parent="WIyWlLk6GJQsqaUBKTNV-1" source="WQZa8UEeUyDz01iGYJ9n-2" target="WQZa8UEeUyDz01iGYJ9n-11">
          <mxGeometry relative="1" as="geometry" />
        </mxCell>
        <mxCell id="WQZa8UEeUyDz01iGYJ9n-2" value="SchemaForm" style="rounded=0;whiteSpace=wrap;html=1;" vertex="1" parent="WIyWlLk6GJQsqaUBKTNV-1">
          <mxGeometry x="380" y="190" width="120" height="40" as="geometry" />
        </mxCell>
        <mxCell id="WQZa8UEeUyDz01iGYJ9n-7" style="edgeStyle=orthogonalEdgeStyle;rounded=0;orthogonalLoop=1;jettySize=auto;html=1;entryX=0;entryY=0.5;entryDx=0;entryDy=0;" edge="1" parent="WIyWlLk6GJQsqaUBKTNV-1" source="WQZa8UEeUyDz01iGYJ9n-3" target="WQZa8UEeUyDz01iGYJ9n-6">
          <mxGeometry relative="1" as="geometry" />
        </mxCell>
        <mxCell id="WQZa8UEeUyDz01iGYJ9n-8" value="&lt;font color=&quot;#ff3333&quot;&gt;输出结果&lt;/font&gt;" style="edgeLabel;html=1;align=center;verticalAlign=middle;resizable=0;points=[];" vertex="1" connectable="0" parent="WQZa8UEeUyDz01iGYJ9n-7">
          <mxGeometry x="-0.1026" y="2" relative="1" as="geometry">
            <mxPoint as="offset" />
          </mxGeometry>
        </mxCell>
        <mxCell id="WQZa8UEeUyDz01iGYJ9n-3" value="SchemaItem" style="rounded=0;whiteSpace=wrap;html=1;" vertex="1" parent="WIyWlLk6GJQsqaUBKTNV-1">
          <mxGeometry x="380" y="260" width="120" height="40" as="geometry" />
        </mxCell>
        <mxCell id="WQZa8UEeUyDz01iGYJ9n-4" value="文档A" style="shape=document;whiteSpace=wrap;html=1;boundedLbl=1;" vertex="1" parent="WIyWlLk6GJQsqaUBKTNV-1">
          <mxGeometry x="576" y="190" width="124" height="40" as="geometry" />
        </mxCell>
        <mxCell id="WQZa8UEeUyDz01iGYJ9n-25" style="edgeStyle=orthogonalEdgeStyle;rounded=0;orthogonalLoop=1;jettySize=auto;html=1;entryX=0.5;entryY=0;entryDx=0;entryDy=0;" edge="1" parent="WIyWlLk6GJQsqaUBKTNV-1" source="WQZa8UEeUyDz01iGYJ9n-6" target="WQZa8UEeUyDz01iGYJ9n-22">
          <mxGeometry relative="1" as="geometry" />
        </mxCell>
        <mxCell id="WQZa8UEeUyDz01iGYJ9n-33" value="&lt;font color=&quot;#ff0000&quot;&gt;整合文档A、B&lt;br&gt;&lt;/font&gt;" style="edgeLabel;html=1;align=center;verticalAlign=middle;resizable=0;points=[];" vertex="1" connectable="0" parent="WQZa8UEeUyDz01iGYJ9n-25">
          <mxGeometry x="0.073" y="-1" relative="1" as="geometry">
            <mxPoint as="offset" />
          </mxGeometry>
        </mxCell>
        <mxCell id="WQZa8UEeUyDz01iGYJ9n-6" value="文档B" style="shape=document;whiteSpace=wrap;html=1;boundedLbl=1;" vertex="1" parent="WIyWlLk6GJQsqaUBKTNV-1">
          <mxGeometry x="577" y="260" width="122" height="40" as="geometry" />
        </mxCell>
        <mxCell id="WQZa8UEeUyDz01iGYJ9n-9" value="注释：解释说&lt;br&gt;明备注" style="strokeWidth=2;html=1;shape=mxgraph.flowchart.annotation_1;align=left;pointerEvents=1;spacingLeft=8;" vertex="1" parent="WIyWlLk6GJQsqaUBKTNV-1">
          <mxGeometry x="690" y="370" width="40" height="100" as="geometry" />
        </mxCell>
        <mxCell id="WQZa8UEeUyDz01iGYJ9n-13" style="edgeStyle=orthogonalEdgeStyle;rounded=0;orthogonalLoop=1;jettySize=auto;html=1;entryX=1;entryY=0.5;entryDx=0;entryDy=0;" edge="1" parent="WIyWlLk6GJQsqaUBKTNV-1" source="WQZa8UEeUyDz01iGYJ9n-11" target="WQZa8UEeUyDz01iGYJ9n-12">
          <mxGeometry relative="1" as="geometry" />
        </mxCell>
        <mxCell id="WQZa8UEeUyDz01iGYJ9n-11" value="fields" style="rounded=0;whiteSpace=wrap;html=1;" vertex="1" parent="WIyWlLk6GJQsqaUBKTNV-1">
          <mxGeometry x="380" y="340" width="120" height="40" as="geometry" />
        </mxCell>
        <mxCell id="WQZa8UEeUyDz01iGYJ9n-16" style="edgeStyle=orthogonalEdgeStyle;rounded=0;orthogonalLoop=1;jettySize=auto;html=1;entryX=0.5;entryY=0;entryDx=0;entryDy=0;" edge="1" parent="WIyWlLk6GJQsqaUBKTNV-1" source="WQZa8UEeUyDz01iGYJ9n-12" target="WIyWlLk6GJQsqaUBKTNV-6">
          <mxGeometry relative="1" as="geometry" />
        </mxCell>
        <mxCell id="WQZa8UEeUyDz01iGYJ9n-12" value="ArrayField" style="rounded=0;whiteSpace=wrap;html=1;" vertex="1" parent="WIyWlLk6GJQsqaUBKTNV-1">
          <mxGeometry x="180" y="340" width="120" height="40" as="geometry" />
        </mxCell>
        <mxCell id="WQZa8UEeUyDz01iGYJ9n-21" style="edgeStyle=orthogonalEdgeStyle;rounded=0;orthogonalLoop=1;jettySize=auto;html=1;entryX=0;entryY=0.5;entryDx=0;entryDy=0;" edge="1" parent="WIyWlLk6GJQsqaUBKTNV-1" source="WQZa8UEeUyDz01iGYJ9n-17" target="WQZa8UEeUyDz01iGYJ9n-3">
          <mxGeometry relative="1" as="geometry" />
        </mxCell>
        <mxCell id="WQZa8UEeUyDz01iGYJ9n-17" value="map" style="rounded=0;whiteSpace=wrap;html=1;" vertex="1" parent="WIyWlLk6GJQsqaUBKTNV-1">
          <mxGeometry x="180" y="260" width="120" height="40" as="geometry" />
        </mxCell>
        <mxCell id="WQZa8UEeUyDz01iGYJ9n-26" style="edgeStyle=orthogonalEdgeStyle;rounded=0;orthogonalLoop=1;jettySize=auto;html=1;entryX=1;entryY=0.5;entryDx=0;entryDy=0;" edge="1" parent="WIyWlLk6GJQsqaUBKTNV-1" source="WQZa8UEeUyDz01iGYJ9n-22" target="WQZa8UEeUyDz01iGYJ9n-24">
          <mxGeometry relative="1" as="geometry" />
        </mxCell>
        <mxCell id="WQZa8UEeUyDz01iGYJ9n-22" value="数据" style="shape=parallelogram;perimeter=parallelogramPerimeter;whiteSpace=wrap;html=1;fixedSize=1;" vertex="1" parent="WIyWlLk6GJQsqaUBKTNV-1">
          <mxGeometry x="578" y="670" width="120" height="40" as="geometry" />
        </mxCell>
        <mxCell id="WQZa8UEeUyDz01iGYJ9n-23" value="ArrayItemWrapper" style="rounded=0;whiteSpace=wrap;html=1;" vertex="1" parent="WIyWlLk6GJQsqaUBKTNV-1">
          <mxGeometry x="180" y="670" width="120" height="40" as="geometry" />
        </mxCell>
        <mxCell id="WQZa8UEeUyDz01iGYJ9n-29" style="edgeStyle=orthogonalEdgeStyle;rounded=0;orthogonalLoop=1;jettySize=auto;html=1;entryX=0.5;entryY=0;entryDx=0;entryDy=0;" edge="1" parent="WIyWlLk6GJQsqaUBKTNV-1" source="WQZa8UEeUyDz01iGYJ9n-24" target="WIyWlLk6GJQsqaUBKTNV-11">
          <mxGeometry relative="1" as="geometry">
            <mxPoint x="450" y="780" as="targetPoint" />
            <Array as="points" />
          </mxGeometry>
        </mxCell>
        <mxCell id="WQZa8UEeUyDz01iGYJ9n-30" style="edgeStyle=orthogonalEdgeStyle;rounded=0;orthogonalLoop=1;jettySize=auto;html=1;entryX=1;entryY=0.5;entryDx=0;entryDy=0;" edge="1" parent="WIyWlLk6GJQsqaUBKTNV-1" source="WQZa8UEeUyDz01iGYJ9n-24" target="WQZa8UEeUyDz01iGYJ9n-23">
          <mxGeometry relative="1" as="geometry" />
        </mxCell>
        <mxCell id="WQZa8UEeUyDz01iGYJ9n-24" value="SelectWidget" style="rounded=0;whiteSpace=wrap;html=1;" vertex="1" parent="WIyWlLk6GJQsqaUBKTNV-1">
          <mxGeometry x="380" y="670" width="120" height="40" as="geometry" />
        </mxCell>
      </root>
    </mxGraphModel>
  </diagram>
</mxfile>
